# AST/ASF file generated using VICON BodyLanguage
# -----------------------------------------------
:version 1.10
:name VICON
:units
  mass 1.0
  length 0.45
  angle deg
:documentation
   .ast/.asf automatically generated from VICON data using
   VICON BodyBuilder and BodyLanguage model FoxedUp or BRILLIANT.MOD
:root
   order TX TY TZ RX RY RZ
   axis XYZ
   position 0 0 0  
   orientation 0 0 0 
:bonedata
  begin
     id 1 
     name lhipjoint
     direction 0.722297 -0.617336 0.311742 
     length 2.6635 
     axis 0 0 0  XYZ
  end
  begin
     id 2 
     name lfemur
     direction 0.34202 -0.939693 0  
     length 7.39349  
     axis 0 0 20  XYZ
    dof rx ry rz
    limits (-160.0 20.0)
           (-70.0 70.0)
           (-60.0 70.0)
  end
  begin
     id 3 
     name ltibia
     direction 0.34202 -0.939693 0   
     length 7.36294   
     axis 0 0 20   XYZ
    dof rx
    limits (-10.0 170.0)
  end
  begin
     id 4 
     name lfoot
     direction 0.104879 -0.288152 0.951824   
     length 2.16981   
     axis -90 7.62852e-016 20   XYZ
    dof rx rz
    limits (-45.0 90.0)
           (-70.0 20.0)
  end
  begin
     id 5 
     name ltoes
     direction 1.53586e-011 -4.21895e-011 1   
     length 1.08218   
     axis -90 7.62852e-016 20   XYZ
    dof rx
    limits (-90.0 20.0)
  end
  begin
     id 6 
     name rhipjoint
     direction -0.75102 -0.589393 0.297631   
     length 2.78977  
     axis 0 0 0  XYZ 
  end
  begin
     id 7 
     name rfemur
     direction -0.34202 -0.939693 0   
     length 7.46076   
     axis 0 0 -20   XYZ
    dof rx ry rz
    limits (-160.0 20.0)
           (-70.0 70.0)
           (-70.0 60.0)
  end
  begin
     id 8 
     name rtibia
     direction -0.34202 -0.939693 0   
     length 7.31726   
     axis 0 0 -20   XYZ
    dof rx
    limits (-10.0 170.0)
 end
 begin
     id 9 
     name rfoot
     direction -0.107991 -0.296704 0.948844   
     length 2.09388  
     axis -90 -7.62852e-016 -20   XYZ
    dof rx rz
    limits (-45.0 90.0)
           (-20.0 70.0)
  end
  begin
     id 10 
     name rtoes
     direction -1.53559e-011 -4.21911e-011 1   
     length 1.04433   
     axis -90 -7.62852e-016 -20   XYZ
    dof rx
    limits (-90.0 20.0)
  end
  begin
     id 11 
     name lowerback
     direction 0.0165164 0.98272 0.184358   
     length 1.71896   
     axis 0 0 0   XYZ
    dof rx ry rz
    limits (-20.0 45.0)
           (-30.0 30.0)
           (-30.0 30.0)
  end
  begin
     id 12 
     name upperback
     direction -0.00887249 0.992297 0.123566   
     length 1.71504   
     axis 0 0 0   XYZ
    dof rx ry rz
    limits (-20.0 45.0)
           (-30.0 30.0)
           (-30.0 30.0)
  end
  begin
     id 13 
     name thorax
     direction -0.0157026 0.998908 0.0440032   
     length 1.77022   
     axis 0 0 0   XYZ
    dof rx ry rz
    limits (-20.0 45.0)
           (-30.0 30.0)
           (-30.0 30.0)
  end
  begin
     id 14 
     name lowerneck
     direction -0.0238856 0.998137 0.0561411   
     length 1.89341   
     axis 0 0 0   XYZ
    dof rx ry rz
    limits (-20.0 45.0)
           (-30.0 30.0)
           (-30.0 30.0)
  end
  begin
     id 15 
     name upperneck
     direction 0.0276574 0.952253 -0.304056   
     length 1.86999   
     axis 0 0 0   XYZ
    dof rx ry rz
    limits (-20.0 45.0)
           (-30.0 30.0)
           (-30.0 30.0)
  end
  begin
     id 16
     name head
     direction 0.00800083 0.994258 -0.106712  
     length 1.91492  
     axis 0 0 0   XYZ
    dof rx ry rz
    limits (-20.0 45.0)
           (-30.0 30.0)
           (-30.0 30.0)
  end
  begin
     id 17 
     name lclavicle
     direction 0.97203 0.225407 0.06595  
     length 3.34889  
     axis 0 0 0   XYZ
    dof ry rz
    limits (-20.0 10.0)
           (0.0 20.0)
  end
  begin
     id 18 
     name lhumerus
     direction 1 -4.48973e-011 2.20267e-027   
     length 4.85645   
     axis 180 -30 -90   XYZ
    dof rx ry rz
    limits (-60.0 90.0)
           (-90.0 90.0)
           (-90.0 90.0)
  end
  begin
     id 19
     name lradius
     direction 1 -4.4897e-011 4.60472e-027   
     length 2.79874   
     axis 180 -30 -90   XYZ
    dof rx
    limits (-10.0 170.0)
  end
  begin
     id 20
     name lwrist
     direction 1 -4.48952e-011 1.14928e-026   
     length 1.39937   
     axis -6.29373e-015 90 90   XYZ
    dof ry
    limits (-180.0 0.0)
 end
  begin
     id 21 
     name lhand
     direction 1 -4.48967e-011 2.29886e-026   
     length 0.573398   
     axis -1.46689e-014 90 90   XYZ
    dof rx rz
    limits (-90.0 90.0)
           (-45.0 45.0)
  end
  begin
     id 22 
     name lfingers
     direction 1 -4.48955e-011 4.59726e-026   
     length 0.462289   
     axis -2.93383e-014 90 90   XYZ
    dof rx
    limits (0.0 90.0)
  end
  begin
     id 23
     name lthumb
     direction 0.707107 -6.34866e-011 0.707107   
     length 0.663757   
     axis -90 45 5.69224e-014   XYZ
    dof rx rz
    limits (-45.0 45.0)
           (-45.0 45.0)
  end
  begin
     id 24 
     name rclavicle
     direction -0.981571 0.157346 0.108443   
     length 3.35257  
     axis 0 0 0   XYZ 
    dof ry rz
    limits (-10.0 20.0)
           (-20.0 0.0)
  end
  begin
     id 25 
     name rhumerus
     direction -1 -4.48967e-011 8.58308e-029  
     length 4.67018   
     axis 180 30 90   XYZ
    dof rx ry rz
    limits (-90.0 60.0)
           (-90.0 90.0)
           (-90.0 90.0)
  end
  begin
     id 26 
     name rradius
     direction -1 -4.48958e-011 4.52548e-027   
     length 2.65534   
     axis 180 30 90   XYZ
    dof rx
    limits (-10.0 170.0)
  end
  begin
     id 27 
     name rwrist
     direction -1 -4.48977e-011 1.14952e-026   
     length 1.32767   
     axis -6.29373e-015 -90 -90   XYZ
    dof ry
    limits (-180.0 0.0)
  end
  begin
     id 28
     name rhand
     direction -1 -4.48924e-011 2.29804e-026   
     length 0.594069   
     axis -1.46689e-014 -90 -90   XYZ
    dof rx rz
    limits (-90.0 90.0)
           (-45.0 45.0)
  end
  begin
     id 29
     name rfingers
     direction -1 -4.48998e-011 4.59888e-026   
     length 0.478954   
     axis -2.93383e-014 -90 -90   XYZ
    dof rx
    limits (0.0 90.0)
  end
  begin
     id 30
     name rthumb
     direction -0.707107 -6.34933e-011 0.707107   
     length 0.687685   
     axis -90 -45 -5.69224e-014   XYZ
    dof rx rz
    limits (-45.0 45.0)
           (-45.0 45.0)
  end
:hierarchy
  begin
    root lhipjoint rhipjoint lowerback
    lhipjoint lfemur
    lfemur ltibia
    ltibia lfoot
    lfoot ltoes
    rhipjoint rfemur
    rfemur rtibia
    rtibia rfoot
    rfoot rtoes
    lowerback upperback
    upperback thorax
    thorax lowerneck lclavicle rclavicle
    lowerneck upperneck
    upperneck head
    lclavicle lhumerus
    lhumerus lradius
    lradius lwrist
    lwrist lhand lthumb
    lhand lfingers
    rclavicle rhumerus
    rhumerus rradius
    rradius rwrist
    rwrist rhand rthumb
    rhand rfingers
  end

#!OML:ASF E:\pregnant2\Project 1\Capture day 1\Session 1\pregnant2.ASF
:FULLY-SPECIFIED
:DEGREES
336
root 3.47286 17.456 6.19634 25.5225 1.45432 -0.801264
lowerback -15.3763 -0.527871 2.23647
upperback -14.641 -0.852438 1.55638
thorax -7.15193 -0.544745 0.336849
lowerneck -16.6802 4.43813 5.92965
upperneck 28.3835 7.1235 -7.83736
head 12.7279 2.80476 -2.88179
rclavicle -6.36111e-015 -5.96354e-015
rhumerus -77.8869 26.3111 -102.46
rradius 65.9141
rwrist -7.0546
rhand 8.85651 -11.4363
rfingers 7.12502
rthumb 34.041 -38.211
lclavicle -6.36111e-015 -5.96354e-015
lhumerus -69.8858 -27.6621 111.855
lradius 61.1295
lwrist 21.2051
lhand 7.22003 35.6345
lfingers 7.12502
lthumb 32.4851 62.7419
rfemur -30.4752 10.2428 19.5561
rtibia 26.3085
rfoot -20.3446 -24.621
rtoes 9.71184
lfemur -35.0813 -8.02667 -4.34207
ltibia 30.9332
lfoot -8.2727 27.3968
ltoes 0.335266
337
root 3.4324 17.4494 6.19461 25.4779 1.62154 -0.877737
lowerback -15.3775 -0.475406 2.36595
upperback -14.6213 -0.795485 1.50365
thorax -7.13177 -0.529293 0.212833
lowerneck -16.7756 4.44504 5.90183
upperneck 28.2343 7.12633 -7.83646
head 12.6863 2.80297 -2.87135
rclavicle 8.64713e-015 1.07344e-014
rhumerus -77.3175 26.1134 -102.167
rradius 65.5234
rwrist -5.63851
rhand 8.02431 -11.2759
rfingers 7.12502
rthumb 33.2501 -38.223
lclavicle 8.64713e-015 1.07344e-014
lhumerus -70.0032 -27.8759 111.817
lradius 61.3774
lwrist 21.321
lhand 7.13281 35.6554
lfingers 7.12502
lthumb 32.4021 62.7799
rfemur -30.4088 10.2856 19.8252
rtibia 26.308
rfoot -20.264 -24.7396
rtoes 9.27918
lfemur -35.486 -7.66076 -4.20087
ltibia 31.6498
lfoot -7.78254 26.9572
ltoes -0.584444
338
root 3.39228 17.4466 6.1924 25.4216 1.78746 -0.944475
lowerback -15.3262 -0.435681 2.47667
upperback -14.6255 -0.750862 1.46384
thorax -7.16663 -0.51819 0.113156
lowerneck -16.8421 4.44587 5.92305
upperneck 28.194 7.14566 -7.92904
head 12.6908 2.80106 -2.90594
rclavicle 6.75868e-015 -1.59028e-015
rhumerus -76.6987 25.9238 -101.866
rradius 65.0492
rwrist -4.23612
rhand 7.05455 -11.2043
rfingers 7.12502
rthumb 32.3276 -38.344
lclavicle 6.75868e-015 -1.59028e-015
lhumerus -70.1317 -27.9976 111.758
lradius 61.6266
lwrist 21.3415
lhand 7.11832 35.7652
lfingers 7.12502
lthumb 32.3883 62.8925
rfemur -30.3357 10.347 20.0763
rtibia 26.3364
rfoot -20.3417 -24.8181
rtoes 9.30606
lfemur -35.9352 -7.30657 -4.07082
ltibia 32.3892
lfoot -7.15271 26.5616
ltoes -1.19689
339
root 3.35187 17.4379 6.18884 25.3751 1.98224 -1.04902
lowerback -15.2628 -0.409532 2.59822
upperback -14.6295 -0.723316 1.45841
thorax -7.20767 -0.514773 0.0427553
lowerneck -16.8528 4.4469 5.89304
upperneck 28.0159 7.16085 -7.98838
head 12.6238 2.79933 -2.91694
rclavicle 4.37326e-015 1.59028e-015
rhumerus -76.115 25.7753 -101.569
rradius 64.6054
rwrist -2.9334
rhand 6.38636 -11.409
rfingers 7.12502
rthumb 31.6914 -38.6763
lclavicle 4.37326e-015 1.59028e-015
lhumerus -70.2279 -28.0601 111.702
lradius 61.8363
lwrist 21.3763
lhand 6.81128 35.5453
lfingers 7.12502
lthumb 32.096 62.7319
rfemur -30.2808 10.3257 20.3978
rtibia 26.3556
rfoot -20.3676 -24.8287
rtoes 9.34252
lfemur -36.3978 -6.94269 -3.89909
ltibia 33.1549
lfoot -6.51956 26.1155
ltoes -1.74992
340
root 3.31376 17.4316 6.1845 25.3341 2.13669 -1.02549
lowerback -15.2187 -0.41451 2.61878
upperback -14.5872 -0.731648 1.40904
thorax -7.18364 -0.522586 -0.0224233
lowerneck -17.1031 4.56234 6.13414
upperneck 28.011 7.32162 -8.23038
head 12.7109 2.85919 -3.02226
rclavicle 1.95803e-014 -1.47101e-014
rhumerus -75.3511 25.7025 -101.289
rradius 64.0327
rwrist -1.58639
rhand 5.30152 -11.4312
rfingers 7.12502
rthumb 30.6575 -38.8974
lclavicle 1.95803e-014 -1.47101e-014
lhumerus -70.1931 -28.1163 111.538
lradius 62.0085
lwrist 21.3034
lhand 6.64729 35.4819
lfingers 7.12502
lthumb 31.9399 62.6999
rfemur -30.245 10.2608 20.5686
rtibia 26.3867
rfoot -20.3515 -24.8547
rtoes 9.15957
lfemur -36.8768 -6.60518 -3.90052
ltibia 33.9542
lfoot -5.86696 25.6871
ltoes -2.33775
341
root 3.27489 17.4245 6.18028 25.2641 2.34725 -1.1744
lowerback -15.12 -0.309174 2.85433
upperback -14.5829 -0.610164 1.33212
thorax -7.23545 -0.485609 -0.224576
lowerneck -17.1017 4.41087 5.86453
upperneck 27.9062 7.13462 -8.10148
head 12.6333 2.76554 -2.9545
rclavicle 8.94531e-016 -1.59028e-015
rhumerus -74.6641 25.3337 -100.91
rradius 63.5608
rwrist -0.254607
rhand 4.24204 -11.4553
rfingers 7.12502
rthumb 29.6468 -39.106
lclavicle 8.94531e-016 -1.59028e-015
lhumerus -70.4011 -28.4186 111.603
lradius 62.214
lwrist 21.3621
lhand 6.4783 35.467
lfingers 7.12502
lthumb 31.779 62.717
rfemur -30.185 10.2636 20.9336
rtibia 26.4374
rfoot -20.3388 -24.9326
rtoes 8.95038
lfemur -37.406 -6.28926 -3.67646
ltibia 34.8255
lfoot -5.07064 25.2977
ltoes -2.76508
342
root 3.23657 17.4183 6.17492 25.2313 2.53078 -1.21386
lowerback -15.0262 -0.25817 2.93289
upperback -14.5741 -0.546299 1.26628
thorax -7.27643 -0.463309 -0.332597
lowerneck -17.1959 4.40254 5.85288
upperneck 27.7901 7.12373 -8.13518
head 12.6062 2.75462 -2.96337
rclavicle 1.18774e-014 -1.23246e-014
rhumerus -73.9182 25.1014 -100.572
rradius 63.018
rwrist 0.933364
rhand 3.23093 -11.5769
rfingers 7.12502
rthumb 28.6812 -39.395
lclavicle 1.18774e-014 -1.23246e-014
lhumerus -70.4684 -28.6111 111.609
lradius 62.3579
lwrist 21.3084
lhand 6.21319 35.2124
lfingers 7.12502
lthumb 31.5264 62.5122
rfemur -30.1789 10.1812 21.1871
rtibia 26.4998
rfoot -20.2642 -24.9707
rtoes 8.63265
lfemur -38.0007 -6.05903 -3.55401
ltibia 35.7295
lfoot -4.3643 24.9315
ltoes -2.09975
343
root 3.20022 17.4126 6.16901 25.2441 2.69074 -1.26313
lowerback -14.9817 -0.203679 3.04013
upperback -14.5679 -0.482301 1.20717
thorax -7.29445 -0.443138 -0.449953
lowerneck -17.2737 4.38907 5.81121
upperneck 27.6748 7.11265 -8.16067
head 12.5744 2.74181 -2.96417
rclavicle -5.66536e-015 1.19271e-015
rhumerus -73.1133 24.8833 -100.203
rradius 62.5343
rwrist 1.96594
rhand 2.46351 -11.9065
rfingers 7.12502
rthumb 27.9478 -39.8464
lclavicle -5.66536e-015 1.19271e-015
lhumerus -70.5371 -28.7856 111.595
lradius 62.5683
lwrist 21.2143
lhand 6.07577 35.2795
lfingers 7.12502
lthumb 31.3955 62.6048
rfemur -30.2177 10.0921 21.4285
rtibia 26.5331
rfoot -20.0319 -25.0412
rtoes 7.81229
lfemur -38.7138 -5.71843 -3.46733
ltibia 36.6899
lfoot -3.38994 24.5184
ltoes -2.63446
344
root 3.16366 17.4062 6.16325 25.2317 2.8701 -1.28461
lowerback -14.9017 -0.143216 3.11279
upperback -14.5573 -0.406417 1.1216
thorax -7.32494 -0.415285 -0.575181
lowerneck -17.31 4.35368 5.81113
upperneck 27.5235 7.06609 -8.22097
head 12.5197 2.71487 -2.9912
rclavicle 1.31695e-014 -4.77083e-015
rhumerus -72.2811 24.5796 -99.8107
rradius 62.0258
rwrist 2.91477
rhand 1.40977 -12.1561
rfingers 7.12502
rthumb 26.94 -40.2557
lclavicle 1.31695e-014 -4.77083e-015
lhumerus -70.6161 -29.0775 111.673
lradius 62.7258
lwrist 21.2041
lhand 5.79359 35.1935
lfingers 7.12502
lthumb 31.1266 62.5708
rfemur -30.2187 10.0057 21.6502
rtibia 26.5631
rfoot -20.0227 -25.0502
rtoes 7.78738
lfemur -39.4048 -5.42819 -3.40161
ltibia 37.6411
lfoot -2.36435 24.0807
ltoes -2.90211
345
root 3.12699 17.4035 6.15847 25.2336 3.04744 -1.29186
lowerback -14.8271 -0.126208 3.13415
upperback -14.536 -0.382643 1.08325
thorax -7.34033 -0.406444 -0.625923
lowerneck -17.448 4.36005 5.76238
upperneck 27.4338 7.08322 -8.23854
head 12.5128 2.7129 -2.98289
rclavicle -1.7344e-014 1.31198e-014
rhumerus -71.3507 24.4089 -99.4247
rradius 61.4436
rwrist 3.81761
rhand 0.655093 -12.4859
rfingers 7.12502
rthumb 26.2177 -40.695
lclavicle -1.7344e-014 1.31198e-014
lhumerus -70.6469 -29.2116 111.652
lradius 62.9695
lwrist 21.001
lhand 5.55194 34.9838
lfingers 7.12502
lthumb 30.8963 62.405
rfemur -30.2319 9.86626 21.8663
rtibia 26.5824
rfoot -19.9974 -25.0067
rtoes 7.73709
lfemur -40.1175 -5.29404 -3.30326
ltibia 38.6047
lfoot -1.40594 23.8036
ltoes -3.00979
346
root 3.09183 17.4029 6.15636 25.2143 3.20587 -1.29098
lowerback -14.8266 -0.113704 3.13315
upperback -14.4664 -0.365961 1.08002
thorax -7.25966 -0.395704 -0.628544
lowerneck -17.6697 4.29344 5.7764
upperneck 27.4589 7.04847 -8.47346
head 12.5777 2.6623 -3.0805
rclavicle -9.93923e-016 -5.96354e-015
rhumerus -70.4463 24.3289 -98.9583
rradius 60.9951
rwrist 4.6847
rhand -0.065867 -12.6142
rfingers 7.12502
rthumb 25.5273 -40.924
lclavicle -9.93923e-016 -5.96354e-015
lhumerus -70.5135 -29.2787 111.599
lradius 63.1442
lwrist 20.7336
lhand 5.53345 35.2183
lfingers 7.12502
lthumb 30.8787 62.6428
rfemur -30.1935 9.78832 22.0509
rtibia 26.5717
rfoot -19.9457 -25.0421
rtoes 7.47085
lfemur -40.7988 -5.19636 -3.22411
ltibia 39.558
lfoot -0.487201 23.5079
ltoes -2.91003
